<?xml version="1.0" encoding="utf-8"?>
<!-- Generator: Adobe Illustrator 23.0.1, SVG Export Plug-In . SVG Version: 6.00 Build 0)  -->
<svg version="1.1" id="Layer_1" xmlns="http://www.w3.org/2000/svg" xmlns:xlink="http://www.w3.org/1999/xlink" x="0px" y="0px"
	 viewBox="0 0 100 100" style="enable-background:new 0 0 100 100;" xml:space="preserve">
<style type="text/css">
	.st0{fill:#65C8D0;}
</style>
<polygon class="st0" points="18.79,31.47 18.79,57.7 34.77,39.52 49.15,46.97 33.97,64.7 49.15,97.94 2.6,76.18 2.6,25.06 "/>
<polygon class="st0" points="50.34,47.39 50.61,97.94 97.44,75.72 97.44,56.87 80.95,64.82 80.69,69.07 66.83,75.93 66.44,54.8 
	80.82,48.16 80.82,52.4 97.44,44.13 97.44,25.06 "/>
<polygon class="st0" points="18.14,5.78 50.08,23.36 81.21,5.78 97.44,14.57 49.81,42.01 2.17,14.91 "/>
<polygon class="st0" points="44.81,3.78 49.88,0.78 55.19,3.78 50,7.12 "/>
<polygon class="st0" points="40.75,7.12 50.08,12.26 59.17,7.12 63.91,9.69 50,17.71 36.09,9.79 "/>
</svg>
